<?xml version="1.0" encoding="utf-8"?>
<!-- Generator: Adobe Illustrator 16.0.0, SVG Export Plug-In . SVG Version: 6.00 Build 0)  -->
<!DOCTYPE svg PUBLIC "-//W3C//DTD SVG 1.1//EN" "http://www.w3.org/Graphics/SVG/1.1/DTD/svg11.dtd">
<svg version="1.1" id="Layer_1" xmlns="http://www.w3.org/2000/svg" xmlns:xlink="http://www.w3.org/1999/xlink" x="0px" y="0px"
	 width="1100.596px" height="173.422px" viewBox="0 0 1100.596 173.422" enable-background="new 0 0 1100.596 173.422"
	 xml:space="preserve">
<rect x="1422.115" y="-636.244" fill="#FFFFFF" width="141.038" height="763.5"/>
<text transform="matrix(1 0 0 1 138.0942 173.4219)"><tspan x="0" y="0" fill="#282828" font-family="'Chalet-Tokyo'" font-size="233.9142">R</tspan><tspan x="142.92" y="0" fill="#272727" font-family="'Chalet-Tokyo'" font-size="233.9142">H</tspan><tspan x="292.625" y="0" fill="#282828" font-family="'Chalet-Tokyo'" font-size="233.9142">IA</tspan><tspan x="501.041" y="0" fill="#F78F2F" font-family="'Chalet-Tokyo'" font-size="233.9142">H</tspan><tspan x="650.746" y="0" fill="#282828" font-family="'Chalet-Tokyo'" font-size="233.9142">OA</tspan></text>
<g>
	<g>
		<g>
			<g>
				<polygon fill="#282828" points="6.896,1.055 6.896,60.419 61.507,1.055 				"/>
				<polygon fill="#282828" points="6.896,106.238 6.896,175.053 69.889,175.053 				"/>
				<polygon fill="#282828" points="100.388,0 21.269,86.602 100.388,173.607 				"/>
			</g>
		</g>
	</g>
	<g>
		<path fill="none" d="M30.688-31.852l-67.342,67.341l34.401,34.402L65.089,2.55L30.688-31.852z M7,1.071h54.609L7,60.436V1.071z"/>
		<polygon fill="#F79031" points="7,1.071 7,60.436 61.609,1.071 		"/>
	</g>
</g>
</svg>
